<?xml version="1.0" encoding="UTF-8" standalone="no"?>
<!-- Created with Inkscape (http://www.inkscape.org/) -->

<svg
   version="1.1"
   id="svg2"
   width="106.24"
   height="22.4"
   viewBox="0 0 106.24 22.4"
   sodipodi:docname="the-curve.svg"
   inkscape:version="1.1.1 (3bf5ae0d25, 2021-09-20)"
   xml:space="preserve"
   xmlns:inkscape="http://www.inkscape.org/namespaces/inkscape"
   xmlns:sodipodi="http://sodipodi.sourceforge.net/DTD/sodipodi-0.dtd"
   xmlns="http://www.w3.org/2000/svg"
   xmlns:svg="http://www.w3.org/2000/svg"><defs
     id="defs6" /><sodipodi:namedview
     id="namedview4"
     pagecolor="#333333"
     bordercolor="#000000"
     borderopacity="0.25"
     inkscape:showpageshadow="2"
     inkscape:pageopacity="0"
     inkscape:pagecheckerboard="0"
     inkscape:deskcolor="#d1d1d1"
     showgrid="false"
     showguides="true"
     inkscape:zoom="16.410509"
     inkscape:cx="52.984341"
     inkscape:cy="11.547479"
     inkscape:window-width="1920"
     inkscape:window-height="1017"
     inkscape:window-x="0"
     inkscape:window-y="40"
     inkscape:window-maximized="1"
     inkscape:current-layer="layer2"
     inkscape:pageshadow="2" /><g
     inkscape:groupmode="layer"
     inkscape:label="Image"
     id="g8"
     style="display:inline" /><g
     inkscape:groupmode="layer"
     id="layer1"
     inkscape:label="text-extruded"
     style="display:inline"><path
       style="display:inline;fill:#ffff82;fill-opacity:1;stroke:none;stroke-width:0.181294;stroke-opacity:1"
       d="m 102.65413,20.680588 c -0.0718,-0.08498 -1.83312,-0.198814 -3.914019,-0.25297 l -3.783454,-0.09846 0.06865,-0.492324 c 0.08957,-0.64235 0.08957,-15.50586 0,-16.148212 l -0.06865,-0.492324 1.068585,-0.8027099 c -0.0077,0.00485 6.028328,0.5390339 6.134788,0.4574499 0.10646,-0.08159 0.313,-0.09426 0.45898,-0.02816 0.21787,0.09865 1.15446,3.1815686 1.15446,3.1815686 0,0 -0.74465,0.574176 -0.89509,0.6787911 -0.20868,0.1451069 -0.19029,0.1562623 -0.37765,0.1562623 -0.28494,0 -0.43658,-0.172489 -0.58908,-0.670092 C 101.7987,5.800858 101.5568,5.275061 101.37407,5.000973 100.75262,4.068776 98.629609,3.892129 98.175478,4.734828 98.106148,4.863443 98.048317,6.098553 98.046911,7.47952 l -0.0025,2.5108501 h 1.381512 c 0.992347,0 0.989817,-0.08816 1.261827,-0.312958 0.60597,-0.500802 1.68839,1.2199389 1.68839,1.2199389 l -1.0292,0.749004 c -0.16409,0.119415 -0.35621,0.08895 -0.65919,-0.161449 -0.27201,-0.224801 -0.26948,-0.312958 -1.261827,-0.312958 h -1.381512 v 3.717546 c 0,4.153149 -0.01398,4.101455 1.182805,4.359691 0.865264,0.186692 1.960774,-0.103912 2.469804,-0.655159 0.21893,-0.237097 0.57474,-0.89633 0.79068,-1.464964 0.28529,-0.751306 0.54679,-0.870902 0.7285,-1.03388 l 0.88416,-0.793013 c 0.12121,-0.108721 -0.64405,1.389399 -0.65214,1.89465 -0.009,0.54558 0.0592,1.067068 0.0331,1.497314 -0.0261,0.430246 0.71186,1.261745 0.71186,1.261745 l -0.86237,0.662306 c 0,0 -0.21574,0.146597 -0.28753,0.158939 -0.1436,0.02469 -0.31724,-0.01154 -0.38905,-0.09652 z"
       id="path1021-5"
       sodipodi:nodetypes="cscssccsscssscsccsscssscsssssscsccscc" /><path
       id="path498-4"
       style="display:inline;fill:#ffff82;fill-opacity:1;stroke:none;stroke-width:0.18488;stroke-opacity:1"
       d="m 36.775391,1.984375 c -0.08651,0.0051 -0.1673,0.027564 -0.222657,0.068359 -0.110714,0.081584 -1.840988,0.1938869 -3.845703,0.2480468 L 29.060547,2.3984368 28,3.1972656 28.07227,3.6894531 c 0.09315,0.642352 0.09315,15.5041339 0,16.1464849 L 28,20.330078 l 3.935547,0.09766 c 2.164039,0.05416 3.995632,0.166973 4.070312,0.251954 0.07467,0.08498 0.25645,0.129546 0.404297,0.09766 l 1.060547,-0.796868 c 0.286331,-0.06176 0.475439,-1.36846 0.511719,-3.550781 0.01681,-1.010503 -0.02029,-1.132813 -0.332031,-1.132813 -0.253852,0 -0.461118,0.28385 -0.757813,1.035156 -10e-4,0.0026 0.758813,-1.037756 0.757813,-1.035156 -0.04165,-0.200793 -1.105839,0.807225 -1.105839,0.807225 0,0 -0.41582,0.273487 -0.712515,1.024793 -0.162342,0.411083 -0.39982,0.865676 -0.605469,1.177735 -0.534979,0.193071 -1.174576,0.258648 -1.724609,0.144531 -1.244654,-0.258236 -1.228515,-0.206226 -1.228515,-4.359375 v -2.919922 h 0.375 c 1.031999,0 0.992517,0.08769 1.27539,0.3125 0.315092,0.250402 0.539702,0.308497 0.685538,0.162151 l 1.060547,-0.797852 c 0.145836,-0.146834 0.212899,-0.498109 0.212899,-1.0654709 0,-1.134723 -0.268252,-1.4050989 -0.898437,-0.9042969 -0.282869,0.224798 -0.243391,0.3144532 -1.275391,0.3144532 h -1.435546 l 0.002,-2.5117188 c 0.0011,-1.0463407 0.03583,-2.0057846 0.08398,-2.4667968 C 33.191072,4.1159666 34.256637,4.3982467 34.673828,5 c 0.190023,0.274088 0.443084,0.8013719 0.560547,1.1699219 0.158589,0.497603 0.314992,0.6699219 0.611328,0.6699219 l 1.346222,-0.8697606 c 0,0 0.114715,0.025093 0.114715,-1.8763332 0,-1.599226 -0.05077,-1.9697094 -0.277344,-2.0683594 -0.07591,-0.03305 -0.167393,-0.046119 -0.253906,-0.041016 z m 66.660159,0 c -0.0832,0.0051 -0.16162,0.027564 -0.21485,0.068359 -0.10646,0.081584 -1.77152,0.1938869 -3.699216,0.2480468 l -3.503906,0.097656 0.06836,0.4921875 c 0.08957,0.642352 0.08957,15.5060867 0,16.1484367 l -0.06836,0.492188 3.783203,0.09961 c 2.080909,0.05416 3.842259,0.166973 3.914059,0.251953 0.0718,0.08498 0.24651,0.129547 0.38868,0.09766 0.27533,-0.06176 0.45533,-1.36846 0.49023,-3.550781 0.0162,-1.010503 -0.0166,-1.132813 -0.31641,-1.132813 -0.24409,0 -0.44322,0.28385 -0.72851,1.035156 -0.21594,0.568634 -0.57209,1.227747 -0.79102,1.464844 -0.50903,0.551247 -1.60543,0.840989 -2.4707,0.654297 C 99.090324,18.192939 99.105469,18.244949 99.105469,14.0918 V 10.375 h 1.380861 c 0.99235,0 0.98971,0.0877 1.26172,0.3125 0.60597,0.500803 0.86523,0.230427 0.86523,-0.9042969 0,-1.134723 -0.25926,-1.4050989 -0.86523,-0.9042969 -0.27201,0.224798 -0.26937,0.3144532 -1.26172,0.3144532 h -1.380861 l 0.002,-2.5117188 c 0.0014,-1.380967 0.05958,-2.6155256 0.128906,-2.7441406 0.454131,-0.842699 2.577775,-0.666572 3.199225,0.265625 0.18273,0.274088 0.42416,0.7994188 0.53711,1.1679688 0.1525,0.497603 0.30295,0.6699218 0.58789,0.6699218 0.37472,0 0.38476,-0.045839 0.38476,-1.9472656 0,-1.599226 -0.0478,-1.9697094 -0.26562,-2.0683594 -0.073,-0.03305 -0.16095,-0.046119 -0.24414,-0.041016 z M 52.671875,2.1796875 c -4.552028,0.096585 -9.293915,3.5383891 -8.574219,10.2871095 0.832974,5.53607 4.733305,8.095631 9.265625,7.787109 2.044444,-0.139168 2.968607,-1.006257 3.94336,-2.103515 0.931006,-1.048012 2.623429,-3.618172 2.144531,-4.015625 -0.660535,-0.548196 -1.425366,1.091923 -2.667969,2.693359 -0.713444,0.919468 -1.341774,1.456829 -2.496094,1.564453 -0.793205,0.07395 -1.960967,0.17444 -3.332031,-0.523437 -1.706197,-0.868461 -3.803007,-3.256601 -3.945312,-7.015625 -0.200915,-5.3070547 3.312331,-7.4660504 5.59375,-7.4687504 2.038473,-9.98e-4 3.79861,0.5314545 4.517578,1.8789063 C 57.66631,6.2854868 58.353516,9.25 58.353516,9.25 c 0,0 0.580001,-2.105419 0.949218,-3.421875 C 58.608212,4.7720025 57.623884,2.9365818 54.59375,2.3417969 53.967672,2.2189041 53.322165,2.1658897 52.671875,2.1796875 Z M 2.6171875,2.2011719 2.5,3.1855469 C 2.089173,6.6046399 2.6728518,7.0824455 4.2304688,4.6015625 4.8902047,3.5507805 4.9992292,3.4632313 5.5820312,3.5195312 l 0.6347657,0.060547 0.052734,7.1874998 c 0.036528,5.030051 -0.015216,7.351368 -0.171875,7.730469 -0.171601,0.415346 -0.1663596,0.609596 0.021484,0.835937 0.179176,0.215897 0.6546174,0.296875 1.7714844,0.296875 1.787063,0 2.1646627,-0.23805 1.7949219,-1.132812 -0.156649,-0.379101 -0.208415,-2.700417 -0.171875,-7.730469 L 9.5644531,3.5800781 10.027344,3.515625 c 0.559842,-0.079255 1.297989,0.5616594 1.822265,1.5839844 0.392847,0.766054 0.893857,1.1474568 1.310547,0.9980468 0.269088,-0.096486 0.309549,-1.5291366 0.08399,-2.9785156 L 13.109375,2.2636719 7.8632812,2.2324219 Z m 91.2500005,0.125 c -0.17744,-0.00206 -0.393725,0.00227 -0.654297,0.013672 l -1.332032,0.058594 0.05469,0.6894531 c 0.20661,2.677305 0.130607,3.2228308 -1.017578,7.384765 -0.627493,2.274534 -1.204623,4.251636 -1.283203,4.392578 -0.198173,0.355479 -2.99532,-10.1871358 -3.03711,-11.4472648 l -0.0332,-1.0195313 -1.890625,-0.056641 c -2.306208,-0.068327 -2.575774,0.1064815 -1.984375,1.2734375 0.210032,0.414421 1.19413,3.5887287 2.1875,7.0546876 2.275781,7.940408 2.530172,8.717714 2.933594,8.953125 0.716909,0.418341 1.507048,0.184807 1.890625,-0.558594 0.146912,-0.28473 1.075828,-3.352401 2.0625,-6.818359 0.986672,-3.4659581 2.065911,-6.9939989 2.40039,-7.8378909 C 94.498533,3.5643091 94.722756,2.741094 94.660156,2.578125 94.593421,2.4042638 94.399505,2.3323666 93.867188,2.3261719 Z m -68.78125,0.00391 c -0.18482,6.05e-5 -0.393226,0.00394 -0.626954,0.011719 l -1.699218,0.056641 0.07031,3.2988281 0.06836,3.2988282 H 20.693357 18.490232 L 18.550782,5.69727 18.611332,2.3984419 H 16.884766 15.15625 l 0.0059,8.5175781 c 0.003,4.684458 0.007,8.564676 0.0098,8.623046 0.003,0.05833 0.771374,0.08013 1.707031,0.04883 l 1.701172,-0.05664 -0.03906,-4.675781 -0.03906,-4.677735 h 2.195313 2.195312 l -0.05664,4.677735 -0.05664,4.675781 1.689453,0.05664 c 1.859554,0.06224 2.101511,-0.08392 1.732422,-1.054688 -0.253692,-0.667267 -0.253692,-14.4674991 0,-15.1347651 0.323283,-0.8503058 0.178502,-1.0687828 -1.115234,-1.0683594 z m 44.453124,0.082031 c -1.124123,0 -1.277212,0.1879462 -0.871093,1.0820312 0.225612,0.496702 0.277592,1.5072358 0.320312,6.3398438 0.0551,6.2366361 -0.01712,6.9637061 -0.777343,7.9707031 -0.595163,0.788361 -1.926421,1.010229 -2.785157,0.462891 -1.106732,-0.705395 -1.149989,-1.010643 -1.136719,-8.2734379 0.0065,-3.5742684 0.04476,-6.7214095 0.08398,-6.9921875 l 0.07031,-0.4921875 H 62.96679 61.490227 l 0.02539,6.4980469 c 0.0147,3.57427 0.07184,6.810364 0.126953,7.189453 0.277054,1.906278 1.296215,3.13496 2.939453,3.546875 1.928439,0.483406 3.969023,-0.228805 4.810547,-1.677734 0.678782,-1.168716 0.792969,-2.362452 0.792969,-8.3164065 0,-4.563652 0.04151,-5.5123229 0.267578,-6.0761719 0.411166,-1.025502 0.24003,-1.2617187 -0.914063,-1.2617187 z m 2.882813,0.2714844 0.08008,0.5898437 c 0.315432,0.089588 0.10317,4.1798028 0.130859,8.566406 l 0.05078,7.976562 1.666015,0.05664 c 1.835424,0.06225 2.079115,-0.08826 1.710938,-1.05664 -0.105276,-0.27689 -0.191406,-1.871196 -0.191406,-3.542968 v -3.039063 h 0.662109 c 1.404497,0 2.049965,1.068955 2.589844,4.289062 0.42204,2.517216 0.699532,3.092412 1.669922,3.449219 0.490567,0.180374 1.714683,0.151537 2.251953,-0.05273 0.60648,-0.230582 0.639471,-0.624559 0.113281,-1.341796 -0.22278,-0.303673 -0.570344,-1.424756 -0.808594,-2.601563 -0.23025,-1.137268 -0.590148,-2.404037 -0.798828,-2.814453 -0.400282,-0.787216 -1.375963,-1.515031 -2.037109,-1.519531 -0.23069,-0.0016 0.01312,-0.196102 0.589843,-0.46875 1.773881,-0.8386 2.662297,-2.2102319 2.654297,-4.1015629 -0.0078,-1.87258 -0.840856,-3.1048003 -2.65625,-3.9277344 -0.893792,-0.4051709 -1.28359,-0.4463249 -4.330078,-0.453125 z m 4.162109,0.9902343 c 0.160031,0.00453 0.356173,0.045587 0.595704,0.099609 1.577635,0.355815 2.311878,1.4733344 2.324218,3.5371094 0.0088,1.469991 -0.425524,2.5488401 -1.267578,3.148437 -0.559584,0.398461 -2.071957,0.824523 -2.259766,0.636719 -0.0595,-0.05949 -0.107421,-1.6851609 -0.107421,-3.6113279 0,-3.1732009 0.02138,-3.830179 0.714843,-3.8105465 z"
       sodipodi:nodetypes="sscccccccscccscccscsscscccssscccssccssssssccccccsscssssscssssscccsssssssscssssssscsccsscccccccsscccccsccccscccsscccsssssscsscccccccccccccccccccccsssssscsscccccccsssssscccccsscssssssscscsccsssssss" /><path
       style="display:inline;fill:#ffff82;fill-opacity:1;stroke:none;stroke-width:0.196929;stroke-opacity:1"
       d="m 14.111729,20.33682 c -0.0028,-0.05837 -0.0078,-3.93887 -0.0108,-8.623328 l -0.0056,-8.517198 1.060921,-0.7978521 2.395295,0.7978521 -0.06143,3.298567 -0.0615,3.2985681 h 2.204849 2.204843 L 21.768537,6.494861 21.698767,3.196294 22.752212,2.4117796 c 0.166737,0.2128211 2.756762,0.8119144 2.387295,1.7836924 -0.253692,0.667266 1.078492,15.228334 1.078492,15.228334 l -1.108718,0.821411 c -0.123338,0.07518 -0.31632,0.118084 -0.594691,0.138299 -0.27837,0.02022 -0.642128,0.01775 -1.107017,0.0022 l -1.689704,-0.05655 0.05666,-4.677073 0.05666,-4.677074 h -2.19532 -2.195319 l 1.139603,8.556237 -1.060783,0.79791 -1.701211,0.0569 c -0.935657,0.0313 -1.703638,0.0091 -1.706611,-0.04923 z"
       id="path1035-7"
       sodipodi:nodetypes="ccccccccccccsccsscccccccccc" /><path
       style="display:inline;fill:#ffff82;fill-opacity:1;stroke:none;stroke-width:0.196929;stroke-opacity:1"
       d="m 5.0585342,20.132401 c -0.187844,-0.226341 -0.192781,-0.421604 -0.02118,-0.83695 0.156659,-0.379101 0.208194,-2.699605 0.171666,-7.729656 L 5.1568502,4.377871 4.5221142,4.316551 C 3.9393122,4.260251 4.2932168,4.3836948 3.6334811,5.4344768 3.2440769,6.0546976 2.2141141,6.7565633 2.2141141,6.7565633 1.8529513,6.9791653 1.7101136,7.0226453 1.56549,6.9043265 1.2762427,6.667689 1.233051,5.6935545 1.4384645,3.984008 l 0.118315,-0.984646 1.060408,-0.7981901 9.4321935,0.8600601 1.178497,2.9574903 c 0,0 -0.860171,0.7797227 -1.129259,0.8762087 C 11.681929,7.044341 11.182001,6.663543 10.789154,5.897489 10.264878,4.875164 9.5268615,4.233162 8.9670195,4.312417 l -0.4623633,0.06545 -0.05217,7.187924 c -0.03654,5.030052 1.2580467,7.771785 1.2580467,7.771785 l -1.1742676,0.859491 c 0,0 0.1355873,-0.0856 0,0 -0.1355878,0.0856 -0.3385757,0.143235 -0.6193581,0.179473 -0.2807824,0.03624 -0.6393593,0.05108 -1.086125,0.05108 -1.116867,0 -1.593044,-0.07932 -1.77222,-0.295217 z"
       id="path1033-6"
       sodipodi:nodetypes="cccccccscccccsccccccssscc" /><path
       style="display:inline;fill:#ffff82;fill-opacity:1;stroke:none;stroke-width:0.196929;stroke-opacity:1"
       d="M 86.750585,20.420651 C 86.347163,20.18524 86.092378,19.407743 83.816597,11.467335 82.823227,8.0013761 81.838637,4.826522 81.628605,4.412101 81.332905,3.828623 81.252632,3.4935898 81.534559,3.3129669 81.816486,3.132344 82.612503,2.4983896 82.612503,2.4983896 l 2.89154,0.6979054 0.03373,1.018405 c 0.04179,1.260129 2.837924,11.802958 3.036097,11.447479 0.07858,-0.140942 0.656258,-2.117243 1.283751,-4.391777 1.148185,-4.161935 1.223303,-4.707549 1.016693,-7.384854 l -0.05322,-0.689253 1.071348,-0.7821056 c 0,0 1.617335,0.7300156 1.706315,0.9618306 0.0626,0.162969 -0.15997,0.986764 -0.49444,1.830658 -0.33448,0.843892 -1.41542,4.3701311 -2.402092,7.836089 -0.986672,3.465958 -1.318515,6.454809 -1.318515,6.454809 0,0 -1.227768,0.980523 -1.562863,1.079502 -0.335096,0.09898 -0.711858,0.05274 -1.070313,-0.156429 z"
       id="path1031-5"
       sodipodi:nodetypes="cscscccssccccsscscc" /><path
       id="path1027-6"
       style="display:inline;fill:#ffff82;fill-opacity:1;stroke:none;stroke-width:0.196929;stroke-opacity:1"
       d="m 79.730922,20.769482 c -0.97039,-0.356806 -1.24873,-0.931306 -1.67077,-3.448523 -0.539879,-3.220107 -1.185267,-4.288943 -2.589764,-4.288943 h -0.662695 v 3.039585 c 0,1.671774 0.893983,2.656275 1.317981,3.61579 0,0 -0.911004,0.690916 -1.154975,0.841582 -0.243967,0.150666 -0.763385,0.172503 -1.681097,0.141376 l -1.667264,-0.05655 -0.05035,-7.975641 C 71.544298,8.2515541 71.75697,4.1613156 71.441538,4.0717274 l -0.08011,-0.590787 1.060447,-0.7973431 c 3.046488,0.0068 5.72355,0.8523831 6.617342,1.2575541 1.815394,0.822934 2.648894,2.055242 2.656684,3.9278217 0.008,1.891331 -0.88035,3.2643439 -2.65423,4.1029439 -0.576722,0.272649 -0.821479,0.466595 -0.590789,0.468153 0.661146,0.0045 1.637167,0.732449 2.037449,1.519665 0.20868,0.410416 1.836268,2.042792 2.066518,3.18006 0.23825,1.176807 0.81009,2.601341 0.81009,2.601341 l -0.857096,0.736362 c 0,0 -0.221812,0.124376 -0.525052,0.239668 -0.537271,0.20427 -1.761301,0.232724 -2.251868,0.05235 z M 77.176114,11.255898 C 78.018168,10.6563 78.452017,9.5787711 78.443245,8.1087801 78.430905,6.0450054 77.696133,4.9268054 76.118497,4.5709904 c -1.277495,-0.288121 -1.310804,-0.193794 -1.310804,3.7116837 0,1.9261669 0.04867,3.5507999 0.108168,3.6102939 0.187808,0.187804 1.700669,-0.238609 2.260253,-0.63707 z"
       sodipodi:nodetypes="csscsssscssccscscssccsccscssss" /><path
       style="display:inline;fill:#ffff82;fill-opacity:1;stroke:none;stroke-width:0.181016;stroke-opacity:1"
       d="M 63.521081,20.541633 C 61.877843,20.129718 60.859499,18.900358 60.582445,16.99408 60.527335,16.61499 60.470249,13.380425 60.455549,9.8061551 l -0.02673,-6.4986703 1.061408,-0.7977157 1.893338,0.7977157 -0.07132,0.492324 c -0.03922,0.270778 -0.07667,3.416725 -0.08319,6.9909932 -0.01327,7.262795 0.02862,7.568261 1.135352,8.273656 0.858736,0.547339 2.19132,0.326432 2.786482,-0.46193 0.760221,-1.006996 0.831084,-1.734954 0.775987,-7.971591 -0.04272,-4.8326082 -0.09352,-5.8421048 -0.319132,-6.3388052 -0.203059,-0.4470425 -0.26664,-0.7178202 -0.138939,-0.8768374 0.1277,-0.1590171 1.104893,-0.8419816 1.104893,-0.8419816 1.149677,0.1008567 1.229394,0.872371 0.818228,1.897873 -0.226069,0.563849 -0.267906,1.512686 -0.267906,6.0763382 0,5.953954 0.626684,6.93888 -0.123313,8.063222 -1.130166,1.694262 -3.551198,2.414293 -5.479637,1.930887 z"
       id="path1025-9"
       sodipodi:nodetypes="ccscccscsscsssssscc" /><path
       style="display:inline;fill:#ffff82;fill-opacity:1;stroke:none;stroke-width:0.196929;stroke-opacity:1"
       d="M 43.037011,13.264471 C 42.214501,5.5516476 48.525103,2.1569612 53.533723,3.140103 56.563857,3.7348879 57.668487,4.3430952 58.353516,9.25 l -1.060632,0.797062 c 0,0 -0.687253,-2.9632096 -1.232469,-3.9850245 -0.718968,-1.3474518 -2.47824,-1.8813473 -4.516713,-1.8803493 -2.281419,0.0027 -5.796347,2.1616743 -5.595432,7.4687288 0.142305,3.759024 2.239247,6.147946 3.945444,7.016407 1.371064,0.697877 2.53982,0.597553 3.333025,0.523598 1.15432,-0.107624 1.782064,-0.645388 2.495508,-1.564856 0.621301,-0.800718 1.12312,-1.611198 1.55218,-2.152973 0.413699,-0.513051 0.946243,-0.827094 1.4693,-1.235486 l -2.597334,5.065686 -1.520319,1.233399 c -0.503328,0.408339 -1.300366,0.445248 -2.322588,0.514832 -4.53232,0.308521 -8.433501,-2.250483 -9.266475,-7.786553 z"
       id="path1023-3"
       sodipodi:nodetypes="csccscsssscccssc" /></g><g
     inkscape:groupmode="layer"
     id="layer2"
     inkscape:label="text-white"
     style="display:inline"><path
       style="display:inline;fill:#ffffff;fill-opacity:1;stroke:none;stroke-width:0.181294;stroke-opacity:1"
       d="m 103.71536,19.882291 c -0.0718,-0.08498 -1.83312,-0.198814 -3.914023,-0.25297 l -3.783454,-0.09846 0.06865,-0.492324 c 0.08957,-0.64235 0.08957,-15.5058599 0,-16.1482119 l -0.06865,-0.492324 3.504909,-0.09846 c 1.927698,-0.05416 3.592008,-0.165216 3.698468,-0.2468 0.10646,-0.08159 0.313,-0.09426 0.45898,-0.02816 0.21787,0.09865 0.2654,0.469171 0.2654,2.0683969 0,1.901427 -0.009,1.948225 -0.38372,1.948225 -0.28494,0 -0.43658,-0.172489 -0.58908,-0.670092 -0.11295,-0.36855 -0.35485,-0.894347 -0.53758,-1.168435 -0.62145,-0.9321969 -2.744466,-1.1088439 -3.198597,-0.266145 -0.06933,0.128615 -0.127161,1.363725 -0.128567,2.744692 l -0.0025,2.51085 h 1.381514 c 0.99235,0 0.98982,-0.08816 1.26183,-0.312958 0.60597,-0.500802 0.8639,-0.230977 0.8639,0.903746 0,1.134724 -0.25793,1.404551 -0.8639,0.903748 -0.27201,-0.224799 -0.26948,-0.312958 -1.26183,-0.312958 h -1.381514 v 3.717546 c 0,4.153149 -0.01398,4.101455 1.182804,4.359691 0.86527,0.186692 1.96078,-0.103912 2.46981,-0.655159 0.21893,-0.237097 0.57474,-0.89633 0.79068,-1.464964 0.28529,-0.751306 0.48441,-1.03388 0.7285,-1.03388 0.29977,0 0.33396,0.121842 0.31779,1.132345 -0.0349,2.182321 -0.21539,3.487834 -0.49072,3.549596 -0.14217,0.03189 -0.31724,-0.01154 -0.38905,-0.09652 z"
       id="path1021"
       sodipodi:nodetypes="cscsscsssssscsccssssscssssscscc" /><path
       style="display:inline;fill:#ffffff;fill-opacity:1;stroke:none;stroke-width:0.18488;stroke-opacity:1"
       d="m 37.066906,19.882291 c -0.07468,-0.08498 -1.906357,-0.198814 -4.070395,-0.25297 l -3.934625,-0.09846 0.0714,-0.492324 c 0.09315,-0.64235 0.09315,-15.5058599 0,-16.1482119 l -0.0714,-0.492324 3.644938,-0.09846 c 2.004715,-0.05416 3.735522,-0.165216 3.846236,-0.2468 0.110714,-0.08159 0.325502,-0.09426 0.477317,-0.02816 0.226571,0.09865 0.276016,0.469171 0.276016,2.0683969 0,1.901427 -0.0096,1.948225 -0.399054,1.948225 -0.296336,0 -0.454029,-0.172489 -0.612618,-0.670092 C 36.177258,5.002561 35.925682,4.476764 35.735658,4.202676 35.089373,3.2704791 32.881544,3.0938321 32.409269,3.936531 32.337189,4.065146 32.277022,5.300256 32.275564,6.681223 l -0.0025,2.51085 h 1.436708 c 1.032,0 0.993185,-0.08816 1.276054,-0.312958 0.630185,-0.500802 0.898419,-0.230977 0.898419,0.903746 0,1.134724 -0.268234,1.404551 -0.898419,0.903748 -0.282873,-0.22481 -0.244059,-0.312969 -1.276058,-0.312969 h -1.436677 v 3.717546 c 0,4.153149 -0.01459,4.101455 1.230064,4.359691 0.899839,0.186692 2.039128,-0.103912 2.568488,-0.655159 0.227683,-0.237097 0.597705,-0.89633 0.822266,-1.464964 0.296695,-0.751306 0.503765,-1.03388 0.757617,-1.03388 0.311738,0 0.347296,0.121842 0.330484,1.132345 -0.03628,2.182321 -0.223998,3.487834 -0.510329,3.549596 -0.147846,0.03189 -0.329915,-0.01154 -0.404589,-0.09652 z"
       id="path498"
       sodipodi:nodetypes="cscscccsssssssccscscscssssscscc" /><path
       style="display:inline;fill:#ffffff;fill-opacity:1;stroke:none;stroke-width:0.196929;stroke-opacity:1"
       d="m 15.172954,19.538523 c -0.0028,-0.05837 -0.0078,-3.93887 -0.0108,-8.623328 l -0.0056,-8.5171979 h 1.728113 1.728104 l -0.06143,3.2985669 -0.0615,3.298568 h 2.204849 2.204842 l -0.06977,-3.298568 -0.06977,-3.2985669 1.699255,-0.05655 c 1.86982,-0.06223 2.110952,0.08395 1.741485,1.055728 -0.253692,0.6672659 -0.253692,14.4672369 0,15.1345039 0.369089,0.970772 0.12762,1.117963 -1.731934,1.055727 l -1.689704,-0.05655 0.05666,-4.677073 0.05666,-4.677074 h -2.19532 -2.195319 l 0.03941,4.677074 0.03941,4.677073 -1.701211,0.0569 c -0.935657,0.0313 -1.703639,0.0091 -1.706612,-0.04923 z"
       id="path1035" /><path
       style="display:inline;fill:#ffffff;fill-opacity:1;stroke:none;stroke-width:0.196929;stroke-opacity:1"
       d="m 6.1197588,19.334104 c -0.187844,-0.226341 -0.192781,-0.421604 -0.02118,-0.83695 0.156659,-0.379101 0.208194,-2.699605 0.171666,-7.729656 l -0.05217,-7.1879239 -0.634736,-0.06132 c -0.582802,-0.0563 -0.69353,0.03233 -1.353266,1.0831119 -1.557617,2.480883 -2.141211,2.003438 -1.730384,-1.4156549 l 0.118315,-0.984646 5.246298,0.03093 5.2463042,0.03094 0.133098,0.855247 C 13.469268,4.567561 13.428932,6.000148 13.159844,6.096634 12.743154,6.246044 12.243226,5.865246 11.850379,5.099192 11.326103,4.076867 10.588086,3.4348651 10.028244,3.5141201 l -0.4623632,0.06545 -0.05217,7.1879239 c -0.03654,5.030052 0.01501,7.350556 0.171659,7.729657 0.3697412,0.894762 -0.0063,1.132167 -1.793363,1.132167 -1.116867,0 -1.593044,-0.07932 -1.77222,-0.295217 z"
       id="path1033" /><path
       style="display:inline;fill:#ffffff;fill-opacity:1;stroke:none;stroke-width:0.196929;stroke-opacity:1"
       d="m 87.81181,19.622354 c -0.403421,-0.235411 -0.658207,-1.012908 -2.933988,-8.953316 -0.99337,-3.465959 -1.977959,-6.640813 -2.187991,-7.0552339 -0.5914,-1.166956 -0.321095,-1.340133 1.985113,-1.271806 l 1.890325,0.056 0.03373,1.018405 c 0.04179,1.2601289 2.837924,11.8029579 3.036097,11.4474789 0.07858,-0.140942 0.656258,-2.117243 1.283751,-4.391777 C 92.067032,6.31017 92.14215,5.764556 91.93554,3.0872511 l -0.05322,-0.689253 1.331973,-0.05829 c 1.04229,-0.04562 1.35671,0.0062 1.44569,0.238015 0.0626,0.162969 -0.15997,0.986764 -0.49444,1.8306579 -0.33448,0.843892 -1.41542,4.370131 -2.402092,7.836089 -0.986672,3.465958 -1.914153,6.534704 -2.061065,6.819434 -0.383577,0.743401 -1.173717,0.976789 -1.890626,0.558448 z"
       id="path1031" /><path
       id="path1027"
       style="display:inline;fill:#ffffff;fill-opacity:1;stroke:none;stroke-width:0.196929;stroke-opacity:1"
       d="m 80.792148,19.971185 c -0.97039,-0.356806 -1.24873,-0.931306 -1.670771,-3.448523 -0.539879,-3.220107 -1.185266,-4.288943 -2.589764,-4.288943 h -0.662695 v 3.039585 c 0,1.671774 0.08613,3.266132 0.191406,3.543021 0.368177,0.96838 0.12593,1.117981 -1.709494,1.055727 l -1.667264,-0.05655 -0.05035,-7.975641 C 72.605526,7.453258 72.818195,3.3630187 72.502764,3.2734305 l -0.08011,-0.590787 3.347803,0.0075 c 3.046488,0.0068 3.436194,0.04754 4.329987,0.452711 1.815394,0.8229335 2.648894,2.0552425 2.656684,3.9278225 0.008,1.89133 -0.88035,3.264343 -2.65423,4.102943 -0.576722,0.272649 -0.821479,0.466595 -0.590789,0.468153 0.661146,0.0045 1.637167,0.732449 2.037448,1.519665 0.20868,0.410416 0.56781,1.676701 0.798061,2.813969 0.238249,1.176807 0.58731,2.297668 0.81009,2.601341 0.52619,0.717237 0.49279,1.111538 -0.11369,1.342121 -0.537271,0.204271 -1.761302,0.232724 -2.251868,0.05235 z M 78.23734,10.457601 C 79.079394,9.858003 79.513243,8.780474 79.504471,7.310484 79.492131,5.246708 78.757359,4.128509 77.179723,3.772694 75.902228,3.4845725 75.868919,3.5788995 75.868919,7.484377 c 0,1.926167 0.04867,3.5508 0.108168,3.610294 0.187808,0.187804 1.700669,-0.238609 2.260253,-0.63707 z"
       sodipodi:nodetypes="csscssscssccscscssssccscssss" /><path
       style="display:inline;fill:#ffffff;fill-opacity:1;stroke:none;stroke-width:0.181016;stroke-opacity:1"
       d="m 64.582306,19.743336 c -1.643238,-0.411915 -2.661582,-1.641275 -2.938636,-3.547553 -0.0551,-0.37909 -0.112196,-3.613655 -0.126895,-7.187925 l -0.02673,-6.4986701 h 1.477373 1.477373 l -0.07132,0.492324 c -0.03922,0.270778 -0.07667,3.4167251 -0.08319,6.9909931 -0.01327,7.262795 0.02862,7.568261 1.135352,8.273656 0.858736,0.547339 2.191321,0.326432 2.786483,-0.46193 0.760221,-1.006996 0.831084,-1.734954 0.775987,-7.971591 -0.04272,-4.832608 -0.09352,-5.842103 -0.319132,-6.3388051 -0.406119,-0.894085 -0.254321,-1.083111 0.869804,-1.083111 1.154092,0 1.325544,0.236663 0.914378,1.262165 -0.226069,0.5638491 -0.267906,1.5126861 -0.267906,6.0763381 0,5.953954 -0.113855,7.148669 -0.792637,8.317385 -0.841524,1.44893 -2.881874,2.16013 -4.810313,1.676724 z"
       id="path1025" /><path
       style="display:inline;fill:#ffffff;fill-opacity:1;stroke:none;stroke-width:0.196929;stroke-opacity:1"
       d="M 44.098236,12.466174 C 43.275726,4.753351 49.586328,1.3586643 54.594948,2.3418061 c 3.030134,0.5947849 4.013264,2.4301969 4.707786,3.4863189 -0.369217,1.316456 -0.948625,3.42064 -0.948625,3.42064 0,0 -0.687253,-2.96321 -1.232469,-3.985024 -0.718968,-1.347452 -2.47824,-1.8813477 -4.516713,-1.8803497 -2.281419,0.0027 -5.796347,2.1616747 -5.595432,7.4687287 0.142305,3.759024 2.239247,6.147946 3.945444,7.016407 1.371064,0.697877 2.53982,0.597553 3.333025,0.523598 1.15432,-0.107624 1.782064,-0.645388 2.495508,-1.564856 1.242603,-1.601436 2.007274,-3.241919 2.667809,-2.693723 0.478898,0.397453 -1.214031,2.969026 -2.145037,4.017038 -0.974753,1.097258 -1.897089,1.962975 -3.941533,2.102143 -4.53232,0.308522 -8.433501,-2.250483 -9.266475,-7.786553 z"
       id="path1023"
       sodipodi:nodetypes="csccscsssssssc" /></g></svg>
