<?xml version="1.0" encoding="UTF-8" standalone="no"?>
<!-- Created with Inkscape (http://www.inkscape.org/) -->

<svg
   width="320.09003mm"
   height="65.732773mm"
   viewBox="0 0 320.09003 65.732773"
   version="1.1"
   id="svg1280"
   inkscape:version="1.1.1 (3bf5ae0d25, 2021-09-20)"
   sodipodi:docname="working.svg"
   xmlns:inkscape="http://www.inkscape.org/namespaces/inkscape"
   xmlns:sodipodi="http://sodipodi.sourceforge.net/DTD/sodipodi-0.dtd"
   xmlns="http://www.w3.org/2000/svg"
   xmlns:svg="http://www.w3.org/2000/svg">
  <sodipodi:namedview
     id="namedview1282"
     pagecolor="#ffffff"
     bordercolor="#666666"
     borderopacity="1.0"
     inkscape:pageshadow="2"
     inkscape:pageopacity="0.0"
     inkscape:pagecheckerboard="0"
     inkscape:document-units="mm"
     showgrid="false"
     fit-margin-top="0"
     fit-margin-left="0"
     fit-margin-right="0"
     fit-margin-bottom="0"
     inkscape:zoom="0.72159091"
     inkscape:cx="467.71654"
     inkscape:cy="124.0315"
     inkscape:window-width="1726"
     inkscape:window-height="757"
     inkscape:window-x="59"
     inkscape:window-y="152"
     inkscape:window-maximized="0"
     inkscape:current-layer="layer1" />
  <defs
     id="defs1277" />
  <g
     inkscape:label="Layer 1"
     inkscape:groupmode="layer"
     id="layer1"
     transform="translate(54.995028,-115.81695)">
    <path
       style="fill:#000000;stroke-width:0.357243"
       d="m -54.994988,157.4358 c 0,-16.06013 0.120989,-24.11393 0.362253,-24.11393 0.800645,0 2.86015,-1.67125 3.270236,-2.65373 0.82214,-1.96968 3.189018,-5.16829 4.359833,-5.89189 1.152239,-0.71213 3.047493,-1.19748 6.38672,-1.63558 l 1.696905,-0.22263 v 28.24411 28.24411 h 4.317829 c 4.27911,0 4.331968,-0.0101 5.894514,-1.13229 l 1.576684,-1.13229 v -26.95805 -26.95805 l 1.309876,0.21256 c 3.720269,0.60371 7.552653,3.70805 9.459457,7.66242 0.63649,1.31996 1.19716,2.4574 1.245936,2.52763 0.04877,0.0702 0.737809,-0.33167 1.531186,-0.89311 l 1.442511,-1.0208 0.0076,-6.87694 0.0076,-6.87693 h -20.029446 -20.02946 l -1.170925,0.89311 c -0.644009,0.49121 -1.27632,0.89311 -1.405137,0.89311 -0.128817,0 -0.234212,-0.88418 -0.234212,-1.96484 v -1.96484 H 105.05 265.09499 v 1.07173 1.07173 h -12.86841 -12.86843 l -1.42132,0.94058 -1.42131,0.94058 v 29.78235 29.78234 h 12.70709 12.70709 l 1.58263,-1.08889 1.58266,-1.08889 v 2.16062 2.16062 H 105.05 -54.994988 Z m 150.843883,21.99384 c 3.15269,-0.80632 5.489905,-1.93084 9.201105,-4.42698 5.37106,-3.61255 9.15473,-8.20395 11.38527,-13.81581 1.60521,-4.03854 1.67732,-4.51101 0.7632,-5.00023 -0.64919,-0.34743 -0.99248,-0.27085 -2.11459,0.47173 -1.01992,0.67494 -1.73648,1.68622 -3.00277,4.23774 -3.0305,6.10635 -5.95186,8.84582 -10.76791,10.09746 -2.809852,0.73025 -8.421008,0.72175 -10.934645,-0.0166 -4.95986,-1.45684 -9.358627,-5.04538 -12.273809,-10.01303 -5.538843,-9.43852 -6.021948,-23.52106 -1.089207,-31.75037 2.667158,-4.44963 5.249045,-6.22665 10.152223,-6.9874 5.154446,-0.79974 10.102152,0.87207 13.940538,4.71046 2.7098,2.70979 5.32196,7.82186 6.67612,13.0653 l 0.94095,3.6435 1.48488,-1.02163 c 1.33184,-0.91633 1.78439,-1.67161 4.39101,-7.32844 l 2.90613,-6.3068 -2.56695,-2.703 c -3.78056,-3.98093 -7.01916,-6.00302 -12.21252,-7.62517 -5.63188,-1.75912 -12.956634,-1.83556 -18.507872,-0.19314 -3.907513,1.1561 -5.66656,2.04391 -9.588974,4.83967 -9.158264,6.5277 -13.164754,14.34894 -13.164754,25.69948 0,7.84695 1.769409,13.69144 5.914988,19.53763 6.308865,8.89691 18.306095,13.48449 28.467587,10.88562 z m 44.100915,0.15483 c 2.49915,-0.74217 6.99844,-3.764 8.35247,-5.60971 0.61924,-0.84411 1.44033,-2.25676 1.82463,-3.13924 1.69436,-3.89068 1.79451,-5.00987 2.07807,-23.22391 0.21383,-13.73497 0.39272,-17.98763 0.86302,-20.51683 0.51399,-2.76404 1.5966,-6.43188 2.51161,-8.50919 0.25585,-0.58085 -0.13036,-0.62518 -5.44668,-0.62518 -5.58422,0 -5.75679,0.0228 -7.16426,0.94424 l -1.44221,0.94424 0.745,1.4603 c 1.32094,2.58927 2.43914,6.36906 3.23673,10.94095 0.71337,4.08912 0.77953,5.68516 0.78491,18.9339 0.006,15.71857 -0.13713,17.15455 -2.10208,21.03219 -0.70158,1.38451 -1.10811,1.7805 -2.01389,1.96165 -4.46312,0.89262 -6.71573,-0.96411 -8.39292,-6.91789 -0.5973,-2.12034 -0.66511,-4.36274 -0.78055,-25.81083 l -0.12643,-23.48875 h -4.4789 c -4.30767,0 -4.53256,0.0376 -5.88239,0.98242 l -1.40349,0.98242 0.1104,22.50633 c 0.10667,21.74432 0.13634,22.59891 0.87648,25.24071 1.82399,6.51041 4.75233,10.14491 9.49379,11.78323 2.284,0.78919 5.94325,0.84566 8.35669,0.12895 z m -139.54748601,-1.16063 1.38911541,-0.98242 0.00762,-13.48593 0.00762,-13.48594 h 6.9662436 6.966244 v 14.46836 14.46835 h 4.311864 c 4.221742,0 4.344942,-0.0228 5.894512,-1.08889 l 1.582652,-1.08889 v -29.63404 -29.63403 h -4.460771 c -4.283848,0 -4.517102,0.039 -5.880957,0.98242 l -1.420186,0.98242 -0.01355,12.59283 -0.01357,12.59282 H 8.7729362 1.8066926 v -13.57524 -13.57525 h -4.3826138 c -4.1027508,0 -4.4677488,0.0579 -5.7158916,0.90599 l -1.3332804,0.90598 v 29.81694 29.81694 h 4.3191509 c 4.1368847,0 4.37777462,-0.0415 5.70826629,-0.98242 z m 55.52672501,-0.0286 1.428972,-0.98729 0.09838,-5.60984 c 0.05411,-3.08541 -5.29e-4,-5.60984 -0.121542,-5.60984 -0.641572,0 -3.054175,2.14911 -4.222662,3.76147 -0.735685,1.01515 -1.800437,2.35247 -2.366121,2.97181 l -1.028513,1.12607 h -4.268835 c -3.563064,0 -4.304688,-0.0934 -4.485677,-0.56508 -0.273666,-0.71316 -0.288438,-29.8006 -0.01513,-29.8006 0.644303,0 4.151403,1.72842 5.56205,2.74117 0.910497,0.65368 1.866416,1.18851 2.124257,1.18851 0.257839,0 1.080289,-0.42377 1.827663,-0.9417 l 1.358865,-0.94169 v -5.31007 c 0,-2.92053 -0.135845,-5.31006 -0.301874,-5.31006 -0.166034,0 -0.576431,0.30338 -0.912,0.67418 -1.081783,1.19536 -4.705038,2.56965 -7.362026,2.7924 l -2.498643,0.20948 v -7.96387 -7.96387 l 3.058137,0.23507 c 1.888998,0.1452 3.562045,0.4938 4.376229,0.91185 1.496753,0.76852 3.683907,2.76133 5.296067,4.82549 l 1.094578,1.40146 1.475084,-1.04422 1.475086,-1.04422 0.0076,-5.09071 0.0076,-5.09072 H 44.828802 32.120968 l -1.581899,0.92705 -1.581899,0.92706 v 29.79587 29.79587 l 12.771448,-0.0119 12.771448,-0.0119 1.428972,-0.98728 z m 111.485601,0.084 1.5819,-0.92706 v -12.46957 c 0,-7.22583 0.1363,-12.46956 0.32413,-12.46956 0.6816,0 3.4797,3.56953 4.6477,5.92907 1.93798,3.915 2.9741,7.20822 6.14282,19.52452 l 0.34467,1.33966 h 4.14638 c 3.90816,0 4.23572,-0.0564 5.70148,-0.98242 0.85531,-0.54033 1.5554,-1.23634 1.55575,-1.5467 7.9e-4,-0.71967 -2.29148,-9.11946 -3.2582,-11.93923 -2.01727,-5.88406 -5.61703,-11.5318 -8.87405,-13.92266 l -1.8226,-1.33792 1.34527,-0.72102 c 2.81583,-1.5092 6.48885,-4.21756 7.56857,-5.58081 0.61787,-0.78013 1.56292,-2.35659 2.1001,-3.50325 0.91852,-1.96064 0.97665,-2.38277 0.97577,-7.08624 -8e-4,-4.71832 -0.0559,-5.11338 -0.97241,-6.97956 -1.43917,-2.93049 -3.22365,-4.81118 -5.73996,-6.04941 -3.08734,-1.51922 -5.31414,-1.79219 -14.63964,-1.79456 l -8.13494,-0.002 -1.42131,0.94058 -1.42132,0.94058 v 29.7824 29.78234 h 4.134 c 3.8054,0 4.25972,-0.0737 5.71589,-0.92705 z m 1.5819,-43.31869 v -12.19869 l 0.80379,0.003 c 1.385,0.006 4.41935,1.65275 5.38974,2.92499 1.47627,1.93549 2.39216,4.36996 2.70987,7.20292 0.59179,5.27708 -0.74344,12.05059 -2.61756,13.27855 -0.43954,0.28801 -2.03367,0.628 -3.54251,0.75554 l -2.74333,0.23189 z m 48.14541,43.15198 c 1.62917,-1.1981 1.50934,-0.82744 2.41802,-7.48007 1.56099,-11.42812 3.91549,-23.93572 6.25417,-33.22363 3.17408,-12.60563 4.63667,-16.49731 6.97008,-18.54609 l 1.25545,-1.10229 h -7.87943 c -7.87783,0 -7.87974,1.9e-4 -9.27631,0.9244 l -1.39687,0.9244 1.1879,1.85697 c 2.40559,3.76053 3.81913,10.96731 3.127,15.94261 -0.34348,2.46909 -4.26236,24.80027 -4.47288,25.48818 -0.0509,0.16639 -2.30945,-9.35371 -5.01894,-21.15576 -2.7095,-11.80206 -5.08307,-22.02585 -5.27461,-22.71954 l -0.34825,-1.26126 h -5.08031 c -4.8496,0 -5.14085,0.0411 -6.41359,0.90599 -0.7333,0.49829 -1.33327,1.12989 -1.33327,1.40355 0,0.27366 2.58092,10.19477 5.73538,22.0469 3.15446,11.85213 6.62953,24.92528 7.72237,29.05144 1.09285,4.12616 2.05812,7.62268 2.14506,7.77004 0.0869,0.14736 1.96564,0.26793 4.1749,0.26793 3.91912,0 4.05302,-0.0266 5.50413,-1.09377 z m 31.30182,-4.89005 c -0.16195,-0.34385 -0.35116,-7.17613 -0.42042,-15.18284 -0.10282,-11.88268 -0.0393,-14.55762 0.34554,-14.55739 0.72729,5.3e-4 4.81711,2.01533 6.1422,3.02603 1.47696,1.12652 1.87346,1.12622 3.53473,-0.003 l 1.33326,-0.90601 v -5.34573 c 0,-4.89541 -0.21566,-6.08465 -0.90205,-4.97405 -0.90376,1.4623 -5.69341,3.20071 -8.81856,3.20071 h -1.71116 l 0.005,-7.05555 c 0.003,-3.88056 0.10752,-7.43911 0.23299,-7.90788 0.22437,-0.83842 0.27789,-0.8485 3.28107,-0.61765 4.13303,0.31769 6.38389,1.66588 9.5663,5.72988 l 1.09784,1.40197 1.03576,-0.71822 c 0.56965,-0.39501 1.23669,-0.83444 1.4823,-0.97649 0.35489,-0.20527 0.44493,3.61352 0.43871,18.60739 l -0.008,18.86567 -1.60017,1.07173 c -0.88008,0.58945 -2.15635,1.87553 -2.83618,2.85794 -0.67979,0.98242 -1.71547,2.30869 -2.3015,2.94726 l -1.06553,1.16104 h -4.26884 c -3.71523,0 -4.30702,-0.0811 -4.5633,-0.62517 z"
       id="path1099" />
    <path
       style="fill:#000000;stroke-width:0.357243"
       d="M -54.994988,148.68334 V 115.81695 H 105.05 265.09499 v 32.86639 32.86638 H 105.05 -54.994988 Z m 154.298911,28.38598 c 7.749467,-2.33848 13.824367,-8.1463 17.008807,-16.26101 1.73016,-4.40886 0.99463,-6.42796 -0.85533,-2.34796 -3.90984,8.62298 -10.8615,13.4438 -19.386047,13.4438 -3.5254,0 -5.97708,-0.51411 -8.80213,-1.84579 -8.87174,-4.18196 -14.62493,-16.05807 -13.90842,-28.71066 0.1133,-2.00073 0.46914,-4.66522 0.79077,-5.92107 3.677,-14.35779 18.75142,-20.35727 29.034397,-11.55543 1.89884,1.62534 4.30782,5.04259 5.52896,7.84308 0.98567,2.26049 2.76165,8.06761 2.7709,9.06036 0.005,0.51918 0.89994,-1.31321 4.65793,-9.53538 l 1.03351,-2.26123 -3.11638,-3.12917 c -3.61507,-3.6299 -6.77698,-5.53359 -11.69022,-7.03832 -2.935797,-0.89912 -3.727407,-0.9866 -9.109697,-1.00672 -6.84598,-0.0256 -9.49414,0.54507 -14.44814,3.11347 -3.76339,1.95113 -8.01457,6.09684 -10.33899,10.0825 -5.11958,8.77849 -5.48144,20.95575 -0.90765,30.54431 4.0753,8.5435 11.16261,14.14192 20.15751,15.92285 3.09296,0.61239 8.89313,0.41323 11.58022,-0.39763 z m 44.755397,-0.25016 c 2.64044,-1.21378 3.92279,-2.4019 5.18865,-4.80734 2.41247,-4.5843 2.9247,-9.53568 2.94487,-28.46588 0.016,-15.01209 0.45112,-18.57255 3.0505,-24.96035 0.23558,-0.57893 -0.14197,-0.62518 -5.10312,-0.62518 h -5.35752 l 1.24301,2.87507 c 1.28441,2.97081 2.26197,7.09252 3.0038,12.66501 0.61298,4.60457 0.48568,27.70996 -0.17347,31.48566 -0.99894,5.72206 -3.06446,8.60693 -6.75349,9.43251 -1.0778,0.2412 -2.52634,0.33222 -3.21899,0.20229 -2.32364,-0.43592 -4.27685,-3.21194 -5.50025,-7.8173 -0.51279,-1.93034 -0.60905,-5.2917 -0.73124,-25.53311 l -0.14071,-23.31013 h -4.08511 -4.08512 l 0.003,21.52391 c 0.002,13.07572 0.14742,22.41578 0.37141,23.79619 1.2018,7.40644 4.81274,12.40622 10.20886,14.13536 2.50557,0.80289 6.68434,0.52993 9.13522,-0.59671 z M -27.487256,149.20799 c 0,-24.82022 0.06285,-28.07893 0.545139,-28.264 0.941126,-0.36115 5.430065,0.48995 7.181705,1.36164 2.464096,1.22624 5.031885,3.69813 6.208654,5.97679 l 1.034351,2.00288 0.0172,-6.16244 0.01717,-6.16245 H -32.131419 -51.7798 v 6.07314 c 0,3.34022 0.07711,6.07313 0.171362,6.07313 0.09425,0 0.481084,-0.60285 0.859634,-1.33966 1.057426,-2.05818 3.940747,-4.91969 6.046338,-6.00061 2.033519,-1.04391 5.480902,-1.9151 7.658952,-1.9355 l 1.339662,-0.0125 v 28.22222 28.22222 h 4.108299 4.108297 z M 1.44945,162.81553 c 0,-9.64369 0.123891,-14.52384 0.37262,-14.67756 0.204944,-0.12667 4.141753,-0.11377 8.748453,0.0286 l 8.37583,0.25894 0.0933,14.32931 0.0933,14.32931 4.01898,0.10101 4.01899,0.10101 v -29.66289 -29.6629 h -4.1083 -4.10829 v 13.76022 13.76022 l -8.66315,-0.0957 -8.663153,-0.0957 -0.09355,-13.66456 -0.09356,-13.66456 h -4.10405 -4.104053 v 29.41304 c 0,16.17717 0.107172,29.5202 0.238162,29.65119 0.130987,0.13099 1.979721,0.23816 4.108299,0.23816 h 3.870135 z m 55.729953,9.44587 c 0,-2.75078 -0.1261,-5.00141 -0.28022,-5.00141 -0.15412,0 -0.54268,0.44209 -0.86346,0.98242 -0.32078,0.54033 -1.48962,1.98206 -2.59743,3.20384 -2.42294,2.67222 -3.23097,2.95388 -8.48191,2.95661 -3.41996,0.002 -3.8672,-0.0716 -4.19761,-0.689 -0.23905,-0.44668 -0.36981,-6.32037 -0.36981,-16.61182 v -15.92081 l 1.33967,0.0117 c 2.293,0.02 5.68788,1.45899 8.93108,3.78574 l 0.80379,0.57666 v -5.30309 c 0,-4.92025 -0.0405,-5.2453 -0.56073,-4.50253 -1.14584,1.63591 -5.83345,3.28809 -9.32907,3.28809 h -1.18474 v -8.4187 c 0,-5.12005 0.14491,-8.68946 0.36981,-9.1097 0.3306,-0.61773 0.77917,-0.69101 4.22986,-0.69101 3.58619,0 4.00984,0.0763 5.97126,1.07543 2.66189,1.35594 2.89905,1.5503 4.72068,3.86875 l 1.49883,1.90761 v -4.85486 -4.85487 h -12.68214 -12.68213 v 29.41303 c 0,16.17717 0.10717,29.52021 0.23816,29.6512 0.13098,0.13099 5.83795,0.23816 12.68214,0.23816 h 12.44397 z m 111.735977,-8.93122 -0.0975,-13.93262 1.10744,1.3e-4 c 1.2935,1.6e-4 3.46928,1.4623 4.82784,3.24435 2.49495,3.27268 4.7883,9.15718 7.08929,18.19038 0.82581,3.24199 1.62262,6.0206 1.77068,6.1747 0.14806,0.15411 2.04321,0.23449 4.21145,0.17862 l 3.94225,-0.10156 -1.3646,-5.06212 c -3.38673,-12.56359 -7.40206,-19.36008 -13.07858,-22.13734 l -2.02392,-0.99022 2.39643,-0.60478 c 7.04658,-1.77835 11.12876,-6.07192 12.04652,-12.67034 0.72608,-5.22032 -0.66295,-10.43654 -3.54718,-13.32077 -3.32346,-3.32346 -5.99808,-3.98623 -17.10965,-4.23979 l -8.66315,-0.19768 v 29.46267 c 0,16.20447 0.10718,29.56984 0.23817,29.70083 0.13098,0.13099 2.06377,0.23816 4.29507,0.23816 h 4.0569 z m 0.16619,-29.09209 0.0936,-13.24111 2.12873,-0.10936 c 2.86261,-0.14707 4.81945,0.64508 6.60527,2.67387 2.0637,2.34449 2.93375,4.91793 3.14839,9.31238 0.28565,5.848 -0.75269,9.75654 -3.26182,12.27824 -1.43191,1.43909 -3.1142,2.00221 -6.5707,2.19944 l -2.23705,0.12765 z m 49.83199,39.27366 c 1.49191,-11.58722 4.09281,-25.85029 6.38413,-35.00985 3.2644,-13.04941 4.53763,-16.61411 6.84731,-19.17064 l 1.23846,-1.37085 h -7.38222 -7.38221 l 1.02769,1.51828 c 3.25006,4.80158 4.07884,12.1772 2.39308,21.29673 -0.49528,2.67924 -1.85759,10.31962 -3.02734,16.97861 -1.16977,6.659 -2.1967,12.17713 -2.28208,12.26251 -0.23098,0.23098 -0.10512,0.75583 -6.31547,-26.33461 -3.17554,-13.85211 -5.88925,-25.31108 -6.03046,-25.46438 -0.14121,-0.1533 -2.35267,-0.23368 -4.91435,-0.17862 l -4.65759,0.1001 0.80942,3.21519 c 0.88645,3.52115 4.38278,16.62804 7.71903,28.93671 1.17164,4.32265 2.18563,8.10049 2.25331,8.39522 0.0677,0.29472 0.71416,2.7865 1.43663,5.53727 0.72247,2.75078 1.72834,6.609 2.23527,8.57384 0.50694,1.96484 1.08206,3.77858 1.27809,4.03054 0.25937,0.33339 1.38443,0.43064 4.13287,0.35724 l 3.77645,-0.10086 z m 45.82419,-1.50042 c 0,-2.88832 -0.12909,-5.09876 -0.28683,-4.9121 -0.15775,0.18666 -0.99214,1.27804 -1.85418,2.42529 -0.86203,1.14725 -2.28544,2.67447 -3.16314,3.39381 l -1.59578,1.3079 -4.47533,0.12786 c -3.98512,0.11386 -4.52675,0.0575 -4.94524,-0.51483 -0.37193,-0.50865 -0.46996,-3.99176 -0.46996,-16.70034 v -16.05765 l 1.96591,0.2029 c 2.25489,0.23272 5.4714,1.5947 7.39079,3.1295 0.72531,0.57996 1.40851,1.05448 1.51829,1.05448 0.10977,0 0.19957,-2.23977 0.19957,-4.97725 v -4.97725 l -1.80477,1.21453 c -2.12852,1.43238 -3.58974,1.90012 -6.85837,2.19538 l -2.41142,0.21783 v -8.47051 c 0,-5.15577 0.14473,-8.74093 0.36984,-9.16152 0.33181,-0.62001 0.76308,-0.68821 4.19759,-0.66383 2.10529,0.0149 4.33967,0.2159 4.9653,0.44656 1.83761,0.6775 4.22862,2.54594 5.79686,4.52991 l 1.46087,1.84814 v -4.85486 -4.85487 h -12.68214 -12.68214 v 29.6512 29.65119 h 12.68214 12.68214 z"
       id="path3299" />
  </g>
</svg>
