<?xml version="1.0" encoding="UTF-8" standalone="no"?>
<svg
   id="Layer_1"
   version="1.1"
   viewBox="0 0 353.45 85.84"
   xmlns="http://www.w3.org/2000/svg"
   xmlns:svg="http://www.w3.org/2000/svg">
  <!-- Generator: Adobe Illustrator 30.1.0, SVG Export Plug-In . SVG Version: 2.1.1 Build 136)  -->
  <defs
     id="defs4">
    <style
       id="style2">
      .st0 {
        fill: #a4885a;
      }

      .st1 {
        fill: #fff;
      }
    </style>
  </defs>
  <g
     id="g22">
    <path
       class="st0"
       d="M32.48,72.4h-8.15V19.1c0-.21-.01-.4-.04-.56-.03-.16-.04-.35-.04-.56-1.61,0-3.16.15-4.64.44-1.48.3-2.89.83-4.23,1.61-1.34.78-3.89,6.28-3.89,6.28,0,0-1.38,1.07-2.72,1.91v-13.06l2.72-1.91,35.66,1.91,2.72,11.24-2.72,1.91c-.7-2.1-1.57-3.8-2.62-5.12-1.05-1.32-2.19-2.36-3.43-3.15-1.24-.78-2.55-1.32-3.95-1.61-1.4-.29-2.85-.44-4.36-.44-.16.16-.26.36-.28.61-.03.24-.04.47-.04.69l2.72,51.24-2.72,1.91Z"
       id="path6" />
    <path
       class="st0"
       d="M63.45,72.48h-8.23V15.15l2.72-1.91,5.5,1.91v26.37h16.53V15.15l2.72-1.91,5.42,1.91,2.72,55.43-2.72,1.91h-8.15v-28.06l-16.53-.08,2.72,26.24-2.72,1.91Z"
       id="path8" />
    <path
       class="st0"
       d="M106.43,66.11c0,.59.04,1.21.12,1.85.08.65.31,1.18.69,1.61h5.56c.91,0,1.71-.05,2.38-.16.67-.11,1.36-.43,2.06-.97.7-.54,1.48-1.32,2.34-2.34.86-1.02,1.94-2.45,3.23-4.27l2.72-1.91v10.56l-2.72,1.91h-24.6V15.15l2.92-1.91,21.68,1.91,2.72,7.85-2.72,1.91c-1.13-1.67-2.18-2.96-3.14-3.87-.97-.91-1.91-1.61-2.82-2.1-.91-.48-1.77-.77-2.58-.85-.81-.08-1.61-.12-2.42-.12l-4.6.08c-.43.43-.67.94-.73,1.53-.05.59-.08,1.18-.08,1.77v13.95h1.61c.64,0,1.37-.05,2.18-.16.81-.11,1.63-.29,2.46-.56.83-.27,1.63-.63,2.38-1.09.75-.46,1.82-.09,2.31-.79l.59-.19,2.08,7.5-2.72,1.91h-.4c-.97-.81-1.96-1.53-2.98-2.18-.86-.48-1.81-.94-2.86-1.37-1.05-.43-2.06-.65-3.02-.65h-1.61v28.39Z"
       id="path10" />
    <path
       class="st0"
       d="M160.01,70.91c-3.36-1.53-6.28-3.63-8.75-6.29-2.47-2.66-4.41-5.81-5.81-9.43-1.4-3.63-2.1-7.51-2.1-11.65,0-5.16.85-9.57,2.54-13.23,1.69-3.66,3.86-6.65,6.49-8.99,2.63-2.34,5.55-4.04,8.75-5.12,3.2-1.07,6.33-1.64,9.4-1.69,2.63,0,5.15.26,7.54.77,2.39.51,4.61,1.26,6.65,2.26,2.04,1,3.88,2.21,5.52,3.63,1.64,1.43,3.08,3.02,4.31,4.8l-2.76,10.03-2.72,1.91c-1.34-7.1-3.64-12.36-6.9-15.81-3.25-3.44-7.14-5.16-11.65-5.16-2.1,0-4.23.43-6.41,1.29-2.18.86-4.15,2.21-5.93,4.03-1.77,1.83-3.23,4.18-4.35,7.06-1.13,2.88-1.69,6.3-1.69,10.28,0,3.39.46,6.72,1.37,10,.91,3.28,2.27,6.24,4.07,8.87,1.8,2.63,4.06,4.76,6.77,6.37,2.71,1.61,5.87,2.42,9.48,2.42,4.68,0,8.7-1.3,12.06-3.91,3.36-2.61,5.98-6.44,7.86-11.49l2.72-1.91,1.37.65c-.81,3.06-4.67,7.77-6.15,10.29-1.48,2.53-3.25,4.7-5.32,6.53-2.07,1.83-4.39,3.25-6.98,4.27-2.58,1.02-5.4,1.53-8.47,1.53-3.92,0-7.57-.77-10.93-2.3Z"
       id="path12" />
    <path
       class="st0"
       d="M228.36,52.4c0,3.44-.23,6.45-.69,9.03-.46,2.58.77,3.93-.28,5.68-1.05,1.75-4.39,3.88-6.05,4.76-1.67.89-3.71,1.33-6.13,1.33-1.61,0-3.24-.32-4.88-.97-1.64-.65-3.13-1.75-4.48-3.31-1.34-1.56-2.45-3.68-3.31-6.37-.86-2.69-1.29-6.08-1.29-10.16V15.15l2.72-1.91,5.5,1.91v36.45c0,2.31.09,4.57.28,6.77.19,2.21.55,4.15,1.09,5.85.54,1.69,1.26,3.06,2.18,4.11.91,1.05,2.04,1.57,3.39,1.57,1.67,0,3.08-.32,4.23-.97,1.16-.65,2.11-1.67,2.86-3.06.75-1.4,1.3-3.19,1.65-5.36.35-2.18.52-4.82.52-7.94s.03-6.34.08-9.68c.05-3.33-.04-6.64-.28-9.92-.24-3.28-.69-6.44-1.33-9.48-.64-3.04-1.69-5.82-3.14-8.35l2.72-1.91,8,1.91c-.97,2.1-1.68,4.18-2.14,6.25-.46,2.07-.78,4.13-.97,6.17-.19,2.04-.28,4.09-.28,6.13v18.71Z"
       id="path14" />
    <path
       class="st0"
       d="M239.16,72.4V15.15l2.72-1.91,9.62,1.91c1.45,0,3.12.12,5,.36,1.88.24,3.66.85,5.32,1.81,1.67.97,3.08,2.42,4.23,4.35,1.16,1.94,1.73,4.6,1.73,7.98,0,2.74-.44,5.04-1.33,6.9-.89,1.85-2.03,3.37-3.43,4.56-1.4,1.18-2.92,2.07-4.56,2.66-1.64.59-3.24,1-4.8,1.21,2.15.81,4.02,1.99,5.6,3.55,1.59,1.56,3,3.48,4.23,5.77,1.24,2.29,2.32,4.93,3.27,7.94.75,2.39,5.5,8.25,5.5,8.25l-2.72,1.91h-8.23c-.54-2.1-1.08-4.22-1.61-6.37-.54-2.15-1.12-4.23-1.73-6.25-.62-2.02-1.29-3.88-2.02-5.6-.73-1.72-1.52-3.23-2.38-4.52-.86-1.29-1.8-2.31-2.82-3.06-1.02-.75-2.15-1.13-3.39-1.13l2.72,25.03-2.72,1.91h-8.23ZM250.62,43.45c1.13-.05,2.19-.27,3.19-.64.99-.38,1.9-1.06,2.7-2.06.81-.99,1.45-2.31,1.94-3.95.48-1.64.73-3.75.73-6.33,0-2.1-.26-3.94-.77-5.52-.51-1.59-1.16-2.89-1.94-3.91-.78-1.02-1.65-1.79-2.62-2.3-.97-.51-1.94-.77-2.9-.77h-3.15c-.22.54-.34,1.14-.36,1.81-.03.67-.04,1.33-.04,1.98v21.77l3.23-.08Z"
       id="path16" />
    <path
       class="st0"
       d="M299.57,27.04c-.22-2.12-.56-4.02-1.05-5.69-.48-1.67-1.05-3.04-1.69-4.11-.64-1.08-1.18-1.77-1.61-2.1l2.72-1.91,12.2,1.91c-1.13.81-2.06,1.79-2.78,2.94-.73,1.16-1.3,2.41-1.73,3.75-1.18,3.87-2.29,7.81-3.31,11.81-1.02,4.01-1.94,8.09-2.74,12.26-.81,4.17-1.56,8.44-2.26,12.82-.49,3.1.79,11.76.79,11.76l-2.72,1.91h-7.9l-15.24-57.26,2.72-1.91,6.96,1.91,11.69,50.72,5.65-32.02c.43-2.42.54-4.69.32-6.81Z"
       id="path18" />
    <path
       class="st0"
       d="M323.84,66.11c0,.59.04,1.21.12,1.85.08.65.31,1.18.69,1.61h5.56c.91,0,1.71-.05,2.38-.16.67-.11,1.36-.43,2.06-.97.7-.54,1.48-1.32,2.34-2.34.86-1.02,1.94-2.45,3.23-4.27l2.72-1.91v10.56l-2.72,1.91h-24.6V15.15l2.72-1.91,21.87,1.91,2.72,7.85-2.72,1.91c-1.13-1.67-2.18-2.96-3.14-3.87-.97-.91-1.91-1.61-2.82-2.1-.91-.48-1.77-.77-2.58-.85-.81-.08-1.61-.12-2.42-.12l-4.6.08c-.43.43-.67.94-.73,1.53-.05.59-.08,1.18-.08,1.77v13.95h1.61c.64,0,1.37-.05,2.18-.16.81-.11,1.63-.29,2.46-.56.83-.27,1.63-.63,2.38-1.09.75-.46,1.96-.03,2.45-.73l1.69-.11.84,7.37-2.72,1.91h-.4c-.97-.81-1.96-1.53-2.98-2.18-.86-.48-1.81-.94-2.86-1.37-1.05-.43-2.06-.65-3.02-.65h-1.61v28.39Z"
       id="path20" />
  </g>
  <g
     id="g40">
    <path
       class="st1"
       d="M 35.2,70.5 H 27.05 V 17.19 c 0,-0.21 -0.01,-0.4 -0.04,-0.56 -0.03,-0.16 -0.04,-0.35 -0.04,-0.56 -1.61,0 -3.16,0.15 -4.64,0.44 -1.48,0.3 -2.89,0.83 -4.23,1.61 -1.34,0.78 -2.58,1.83 -3.71,3.15 -1.13,1.32 -2.1,3 -2.9,5.04 V 13.25 h 38.39 v 13.14 c -0.7,-2.1 -1.57,-3.8 -2.62,-5.12 -1.05,-1.32 -2.19,-2.36 -3.43,-3.15 -1.24,-0.78 -2.55,-1.32 -3.95,-1.61 -1.4,-0.29 -2.85,-0.44 -4.36,-0.44 -0.16,0.16 -0.26,0.36 -0.28,0.61 -0.03,0.24 -0.04,0.47 -0.04,0.69 v 53.14 z"
       id="path24" />
    <path
       class="st1"
       d="M 66.17,70.58 H 57.94 V 13.24 h 8.23 V 39.61 H 82.7 V 13.24 h 8.15 V 70.58 H 82.7 V 42.52 L 66.17,42.44 Z"
       id="path26" />
    <path
       class="st1"
       d="m 109.15,64.21 c 0,0.59 0.04,1.21 0.12,1.85 0.08,0.65 0.31,1.18 0.69,1.61 h 5.56 c 0.91,0 1.71,-0.05 2.38,-0.16 0.67,-0.11 1.36,-0.43 2.06,-0.97 0.7,-0.54 1.48,-1.32 2.34,-2.34 0.86,-1.02 1.94,-2.45 3.23,-4.27 v 10.56 h -24.6 V 13.24 h 24.6 V 23 c -1.13,-1.67 -2.18,-2.96 -3.14,-3.87 -0.97,-0.91 -1.91,-1.61 -2.82,-2.1 -0.91,-0.48 -1.77,-0.77 -2.58,-0.85 -0.81,-0.08 -1.61,-0.12 -2.42,-0.12 l -4.6,0.08 c -0.43,0.43 -0.67,0.94 -0.73,1.53 -0.05,0.59 -0.08,1.18 -0.08,1.77 v 13.95 h 1.61 c 0.64,0 1.37,-0.05 2.18,-0.16 0.81,-0.11 1.63,-0.29 2.46,-0.56 0.83,-0.27 1.63,-0.63 2.38,-1.09 0.75,-0.46 1.37,-1.03 1.85,-1.73 h 0.4 v 10.16 h -0.4 c -0.97,-0.81 -1.96,-1.53 -2.98,-2.18 -0.86,-0.48 -1.81,-0.94 -2.86,-1.37 -1.05,-0.43 -2.06,-0.65 -3.02,-0.65 h -1.61 V 64.2 Z"
       id="path28" />
    <path
       class="st1"
       d="m 162.74,69 c -3.36,-1.53 -6.28,-3.63 -8.75,-6.29 -2.47,-2.66 -4.41,-5.81 -5.81,-9.43 -1.4,-3.63 -2.1,-7.51 -2.1,-11.65 0,-5.16 0.85,-9.57 2.54,-13.23 1.69,-3.66 3.86,-6.65 6.49,-8.99 2.63,-2.34 5.55,-4.04 8.75,-5.12 3.2,-1.07 6.33,-1.64 9.4,-1.69 2.63,0 5.15,0.26 7.54,0.77 2.39,0.51 4.61,1.26 6.65,2.26 2.04,1 3.88,2.21 5.52,3.63 1.64,1.43 3.08,3.02 4.31,4.8 L 191.8,36 c -1.34,-7.1 -3.64,-12.36 -6.9,-15.81 -3.25,-3.44 -7.14,-5.16 -11.65,-5.16 -2.1,0 -4.23,0.43 -6.41,1.29 -2.18,0.86 -4.15,2.21 -5.93,4.03 -1.77,1.83 -3.23,4.18 -4.35,7.06 -1.13,2.88 -1.69,6.3 -1.69,10.28 0,3.39 0.46,6.72 1.37,10 0.91,3.28 2.27,6.24 4.07,8.87 1.8,2.63 4.06,4.76 6.77,6.37 2.71,1.61 5.87,2.42 9.48,2.42 4.68,0 8.7,-1.3 12.06,-3.91 3.36,-2.61 5.98,-6.44 7.86,-11.49 l 1.37,0.65 c -0.81,3.06 -1.95,5.86 -3.43,8.39 -1.48,2.53 -3.25,4.7 -5.32,6.53 -2.07,1.83 -4.39,3.25 -6.98,4.27 -2.58,1.02 -5.4,1.53 -8.47,1.53 -3.92,0 -7.57,-0.77 -10.93,-2.3 z"
       id="path30" />
    <path
       class="st1"
       d="m 231.08,50.5 c 0,3.44 -0.23,6.45 -0.69,9.03 -0.46,2.58 -1.21,4.75 -2.26,6.49 -1.05,1.75 -2.41,3.06 -4.07,3.95 -1.67,0.89 -3.71,1.33 -6.13,1.33 -1.61,0 -3.24,-0.32 -4.88,-0.97 -1.64,-0.65 -3.13,-1.75 -4.48,-3.31 -1.34,-1.56 -2.45,-3.68 -3.31,-6.37 -0.86,-2.69 -1.29,-6.08 -1.29,-10.16 V 13.24 h 8.23 v 36.45 c 0,2.31 0.09,4.57 0.28,6.77 0.19,2.21 0.55,4.15 1.09,5.85 0.54,1.69 1.26,3.06 2.18,4.11 0.91,1.05 2.04,1.57 3.39,1.57 1.67,0 3.08,-0.32 4.23,-0.97 1.16,-0.65 2.11,-1.67 2.86,-3.06 0.75,-1.4 1.3,-3.19 1.65,-5.36 0.35,-2.18 0.52,-4.82 0.52,-7.94 0,-3.12 0.03,-6.34 0.08,-9.68 0.05,-3.33 -0.04,-6.64 -0.28,-9.92 -0.24,-3.28 -0.69,-6.44 -1.33,-9.48 -0.64,-3.04 -1.69,-5.82 -3.14,-8.35 h 10.73 c -0.97,2.1 -1.68,4.18 -2.14,6.25 -0.46,2.07 -0.78,4.13 -0.97,6.17 -0.19,2.04 -0.28,4.09 -0.28,6.13 v 18.71 z"
       id="path32" />
    <path
       class="st1"
       d="M 241.89,70.5 V 13.24 h 12.34 c 1.45,0 3.12,0.12 5,0.36 1.88,0.24 3.66,0.85 5.32,1.81 1.67,0.97 3.08,2.42 4.23,4.35 1.16,1.94 1.73,4.6 1.73,7.98 0,2.74 -0.44,5.04 -1.33,6.9 -0.89,1.85 -2.03,3.37 -3.43,4.56 -1.4,1.18 -2.92,2.07 -4.56,2.66 -1.64,0.59 -3.24,1 -4.8,1.21 2.15,0.81 4.02,1.99 5.6,3.55 1.59,1.56 3,3.48 4.23,5.77 1.24,2.29 2.32,4.93 3.27,7.94 0.94,3.01 1.87,6.4 2.78,10.16 h -8.23 c -0.54,-2.1 -1.08,-4.22 -1.61,-6.37 -0.54,-2.15 -1.12,-4.23 -1.73,-6.25 -0.62,-2.02 -1.29,-3.88 -2.02,-5.6 -0.73,-1.72 -1.52,-3.23 -2.38,-4.52 -0.86,-1.29 -1.8,-2.31 -2.82,-3.06 -1.02,-0.75 -2.15,-1.13 -3.39,-1.13 v 26.93 h -8.23 z m 11.45,-28.95 c 1.13,-0.05 2.19,-0.27 3.19,-0.64 0.99,-0.38 1.9,-1.06 2.7,-2.06 0.81,-0.99 1.45,-2.31 1.94,-3.95 0.48,-1.64 0.73,-3.75 0.73,-6.33 0,-2.1 -0.26,-3.94 -0.77,-5.52 -0.51,-1.59 -1.16,-2.89 -1.94,-3.91 -0.78,-1.02 -1.65,-1.79 -2.62,-2.3 -0.97,-0.51 -1.94,-0.77 -2.9,-0.77 h -3.15 c -0.22,0.54 -0.34,1.14 -0.36,1.81 -0.03,0.67 -0.04,1.33 -0.04,1.98 v 21.77 l 3.23,-0.08 z"
       id="path34" />
    <path
       class="st1"
       d="m 302.29,25.14 c -0.22,-2.12 -0.56,-4.02 -1.05,-5.69 -0.48,-1.67 -1.05,-3.04 -1.69,-4.11 -0.64,-1.08 -1.18,-1.77 -1.61,-2.1 h 14.92 c -1.13,0.81 -2.06,1.79 -2.78,2.94 -0.73,1.16 -1.3,2.41 -1.73,3.75 -1.18,3.87 -2.29,7.81 -3.31,11.81 -1.02,4.01 -1.94,8.09 -2.74,12.26 -0.81,4.17 -1.56,8.44 -2.26,12.82 -0.7,4.38 -1.34,8.94 -1.94,13.67 h -7.9 L 274.96,13.23 h 9.68 l 11.69,50.72 5.65,-32.02 c 0.43,-2.42 0.54,-4.69 0.32,-6.81 z"
       id="path36" />
    <path
       class="st1"
       d="m 326.56,64.21 c 0,0.59 0.04,1.21 0.12,1.85 0.08,0.65 0.31,1.18 0.69,1.61 h 5.56 c 0.91,0 1.71,-0.05 2.38,-0.16 0.67,-0.11 1.36,-0.43 2.06,-0.97 0.7,-0.54 1.48,-1.32 2.34,-2.34 0.86,-1.02 1.94,-2.45 3.23,-4.27 v 10.56 h -24.6 V 13.24 h 24.6 V 23 c -1.13,-1.67 -2.18,-2.96 -3.14,-3.87 -0.97,-0.91 -1.91,-1.61 -2.82,-2.1 -0.91,-0.48 -1.77,-0.77 -2.58,-0.85 -0.81,-0.08 -1.61,-0.12 -2.42,-0.12 l -4.6,0.08 c -0.43,0.43 -0.67,0.94 -0.73,1.53 -0.05,0.59 -0.08,1.18 -0.08,1.77 v 13.95 h 1.61 c 0.64,0 1.37,-0.05 2.18,-0.16 0.81,-0.11 1.63,-0.29 2.46,-0.56 0.83,-0.27 1.63,-0.63 2.38,-1.09 0.75,-0.46 1.37,-1.03 1.85,-1.73 h 0.4 v 10.16 h -0.4 c -0.97,-0.81 -1.96,-1.53 -2.98,-2.18 -0.86,-0.48 -1.81,-0.94 -2.86,-1.37 -1.05,-0.43 -2.06,-0.65 -3.02,-0.65 h -1.61 V 64.2 Z"
       id="path38" />
  </g>
</svg>
